<?xml version="1.0" standalone="no"?>
<!DOCTYPE svg PUBLIC "-//W3C//DTD SVG 20010904//EN"
 "http://www.w3.org/TR/2001/REC-SVG-20010904/DTD/svg10.dtd">
<svg version="1.0" xmlns="http://www.w3.org/2000/svg"
 width="700.000000pt" height="700.000000pt" viewBox="0 0 700.000000 700.000000"
 preserveAspectRatio="xMidYMid meet">
<metadata>
Created by potrace 1.14, written by Peter Selinger 2001-2017
</metadata>
<g transform="translate(0.000000,700.000000) scale(0.100000,-0.100000)"
fill="#000000" stroke="none">
<path d="M2895 6443 c-4 -10 -9 -63 -12 -118 -4 -91 -1 -119 42 -320 26 -121
49 -231 51 -245 2 -14 11 -59 19 -100 17 -89 19 -98 46 -260 27 -162 64 -351
94 -470 40 -161 54 -252 51 -334 -3 -68 -9 -88 -41 -150 -100 -192 -279 -397
-485 -556 -25 -19 -47 -37 -50 -40 -3 -3 -34 -30 -70 -60 -161 -137 -253 -261
-278 -377 -10 -45 -8 -301 2 -393 15 -129 58 -253 109 -310 66 -75 149 -122
300 -171 183 -60 224 -95 213 -183 -24 -190 -197 -489 -392 -678 -139 -135
-237 -181 -384 -179 -95 0 -163 13 -248 47 -138 55 -234 133 -310 252 -87 137
-104 209 -104 442 0 262 21 353 169 725 41 105 81 204 88 220 72 163 165 437
180 530 2 11 8 47 14 80 27 156 37 633 15 655 -11 11 -15 3 -29 -60 -2 -10
-19 -178 -30 -292 -27 -298 -48 -374 -227 -822 -164 -409 -185 -466 -213 -565
-45 -164 -59 -264 -59 -446 0 -171 9 -258 49 -451 13 -58 71 -218 106 -288
138 -276 337 -409 604 -401 203 6 360 97 512 295 129 168 265 455 288 605 3
22 7 47 10 55 2 8 6 35 9 60 3 25 9 56 12 70 13 56 13 286 0 355 -30 149 -90
258 -156 282 -19 7 -72 22 -118 34 -145 38 -332 181 -332 254 0 27 28 77 68
121 53 58 237 215 375 318 70 53 124 101 133 119 9 18 23 39 30 48 28 32 113
219 199 437 48 123 91 220 95 215 4 -4 24 -80 44 -168 59 -254 86 -344 126
-430 137 -289 374 -285 686 10 11 11 72 67 135 125 244 225 578 569 713 735
l40 49 8 -30 c7 -26 31 -185 43 -289 2 -22 7 -60 10 -85 3 -25 8 -65 10 -90 3
-25 7 -56 9 -70 3 -14 8 -50 11 -81 3 -31 7 -65 9 -75 2 -11 7 -50 11 -88 8
-87 25 -134 20 -56 -2 30 -7 102 -10 160 -3 58 -8 137 -11 175 -3 39 -7 90 -9
115 -2 25 -6 83 -10 130 -3 47 -8 103 -10 125 -2 22 -7 74 -11 115 -3 41 -8
78 -11 82 -21 38 163 270 433 546 137 140 166 188 168 285 3 91 -12 167 -32
167 -25 0 -147 -107 -260 -228 -203 -219 -247 -255 -317 -263 -33 -5 -32 -8
-59 166 -22 138 -23 141 -47 218 -40 124 -133 196 -256 197 -70 1 -96 -4 -193
-36 -161 -54 -314 -148 -415 -255 -90 -96 -98 -126 -98 -384 -1 -220 6 -259
53 -299 36 -30 175 -81 271 -99 77 -14 146 -14 312 -2 114 9 116 6 58 -69
-112 -147 -407 -409 -651 -581 -204 -143 -218 -150 -322 -150 -82 0 -88 1
-110 27 -34 41 -105 241 -122 349 -3 20 -8 42 -11 50 -6 18 -71 340 -79 394
-4 23 -9 52 -11 65 -5 22 -13 68 -39 216 -3 17 -8 46 -10 65 -3 19 -7 46 -10
59 -3 14 -8 41 -10 60 -5 31 -37 218 -52 295 -34 186 -74 320 -175 593 -60
159 -134 322 -147 322 -6 0 -13 -8 -17 -17z m1833 -1042 c67 -30 144 -113 140
-150 -7 -56 -104 -74 -408 -75 -232 -1 -235 -1 -275 23 -65 40 -67 47 -26 94
38 42 123 85 225 113 113 31 268 28 344 -5z"/>
<path d="M2325 974 c-154 -90 -294 -171 -312 -180 -98 -48 -84 -135 33 -204
107 -64 100 -64 184 -8 219 147 348 255 381 321 16 31 19 55 17 134 -2 53 -7
98 -13 99 -5 1 -136 -72 -290 -162z"/>
</g>
</svg>
