<?xml version="1.0" standalone="no"?>
<!DOCTYPE svg PUBLIC "-//W3C//DTD SVG 20010904//EN"
 "http://www.w3.org/TR/2001/REC-SVG-20010904/DTD/svg10.dtd">
<svg version="1.0" xmlns="http://www.w3.org/2000/svg"
 width="700.000000pt" height="700.000000pt" viewBox="0 0 700.000000 700.000000"
 preserveAspectRatio="xMidYMid meet">
<metadata>
Created by potrace 1.14, written by Peter Selinger 2001-2017
</metadata>
<g transform="translate(0.000000,700.000000) scale(0.100000,-0.100000)"
fill="#000000" stroke="none">
<path d="M3300 6824 c-19 -2 -87 -9 -150 -15 -544 -51 -1113 -265 -1575 -593
-281 -199 -588 -504 -781 -776 -331 -468 -524 -962 -600 -1546 -24 -179 -24
-598 -1 -784 68 -533 241 -1006 530 -1443 l92 -138 22 148 c34 229 104 543
167 744 13 44 13 48 -16 115 -38 89 -83 264 -97 379 -33 263 -22 694 19 759
78 127 420 343 990 627 370 184 763 355 933 404 52 15 57 19 57 45 0 18 -12
42 -31 64 -63 73 -94 228 -63 326 14 45 18 118 24 410 6 341 8 359 33 454 38
143 60 181 153 273 133 131 238 172 465 180 251 10 374 -33 523 -181 93 -92
115 -132 153 -272 25 -95 26 -114 33 -454 6 -292 10 -365 24 -410 31 -98 0
-253 -63 -326 -41 -46 -42 -91 -3 -100 108 -26 476 -179 792 -329 615 -293
1076 -575 1159 -709 42 -68 53 -494 20 -761 -14 -115 -59 -290 -97 -379 -29
-67 -29 -71 -16 -115 64 -204 141 -550 170 -763 20 -145 9 -146 112 8 280 421
463 918 529 1444 23 186 23 594 0 780 -108 856 -516 1611 -1167 2159 -497 418
-1096 677 -1749 757 -120 15 -517 27 -591 18z"/>
<path d="M3345 6206 c-82 -22 -100 -32 -165 -93 -57 -53 -64 -65 -88 -143 -25
-83 -26 -93 -31 -455 -6 -335 -8 -373 -25 -406 -30 -58 -16 -120 40 -176 52
-54 57 -73 52 -231 -4 -140 -17 -169 -84 -188 -21 -6 -75 -21 -119 -33 -390
-107 -1539 -684 -1761 -884 l-47 -43 -5 -169 c-10 -375 41 -685 138 -838 l30
-48 -44 -142 c-87 -284 -148 -575 -188 -901 l-22 -188 144 -142 c128 -124 327
-296 345 -296 3 0 4 357 2 793 -3 674 -6 810 -21 910 l-16 119 46 69 c25 39
62 109 81 157 43 109 76 142 138 142 54 0 33 19 639 -565 l426 -410 0 -632 0
-633 690 0 690 0 0 633 0 632 421 405 c608 586 590 570 643 570 65 0 95 -30
134 -132 17 -46 54 -117 81 -159 l51 -77 -20 -173 c-18 -158 -20 -241 -20
-911 0 -406 3 -738 8 -738 16 0 273 225 377 329 l109 111 -23 187 c-39 325
-100 617 -187 900 l-44 142 30 48 c97 153 148 463 138 838 l-5 169 -47 43
c-240 217 -1491 834 -1831 903 -118 24 -135 52 -135 229 0 66 4 131 9 144 6
14 28 43 50 64 51 51 64 115 35 172 -17 33 -19 71 -25 406 -5 362 -6 372 -31
455 -24 79 -31 89 -89 144 -94 88 -127 100 -289 103 -87 1 -153 -2 -185 -11z
m367 -1865 c491 -126 772 -642 609 -1118 -77 -225 -244 -411 -456 -509 -126
-58 -211 -76 -360 -77 -145 -1 -219 13 -340 64 -247 102 -435 320 -506 584
-17 63 -22 108 -22 215 0 107 5 152 22 215 91 341 369 591 716 645 85 13 247
4 337 -19z"/>
<path d="M1740 2870 c0 -5 5 -10 10 -10 6 0 10 5 10 10 0 6 -4 10 -10 10 -5 0
-10 -4 -10 -10z"/>
<path d="M5240 2870 c0 -5 5 -10 10 -10 6 0 10 5 10 10 0 6 -4 10 -10 10 -5 0
-10 -4 -10 -10z"/>
<path d="M1757 2641 l-28 -50 16 -145 c12 -118 15 -301 15 -965 l0 -820 58
-34 c378 -225 824 -375 1292 -434 186 -23 594 -23 780 0 445 57 858 190 1230
399 l115 65 6 884 c4 623 9 908 18 964 12 79 12 80 -16 132 -15 29 -31 52 -35
50 -3 -1 -180 -168 -392 -372 l-385 -370 -1 -702 0 -703 -930 0 -930 0 0 703
-1 702 -385 370 c-212 204 -389 371 -392 372 -4 2 -19 -19 -35 -46z"/>
</g>
</svg>
