<svg
      xmlns="http://www.w3.org/2000/svg"
      width="80"
      height="80"
      viewBox="0 0 250 250"
    >
      <defs>
        <clipPath id="_clipPath_gA3dR1OSfM6oVXNaPCh7oaZWLE5XcOlk">
          <path d="M0 0H250V250H0z"></path>
        </clipPath>
      </defs>
      <g clipPath="url(#_clipPath_gA3dR1OSfM6oVXNaPCh7oaZWLE5XcOlk)">
        <circle
          cx="125"
          cy="125"
          r="119"
          vectorEffect="non-scaling-stroke"
        ></circle>
        <path
          fill="#FFF"
          fillRule="evenodd"
          stroke="#F4F2F2"
          strokeLinecap="square"
          strokeMiterlimit="3"
          d="M125.02 23.44h.79l1.21.03c1.03.05 2.06.14 3.08.27 1.25.16 2.48.46 3.65.91.77.31 1.51.69 2.22 1.12l.03.02.22.13c.05.02.09.06.14.09 1.1.79 2.15 1.65 3.14 2.57.85.78 1.63 1.63 2.32 2.55.27.35.52.72.74 1.1 1.54 3.99 2.38 8.22 2.5 12.5v20.1a8.113 8.113 0 011.29 4.23v.13l-.03.6v.04a11.5 11.5 0 01-1.25 5.02c-.73.94-1.58 1.77-2.51 2.5h-.01V84.88h.02c.86.08 1.71.24 2.55.47 1.18.3 2.34.64 3.49 1.02 3.12 1.05 6.19 2.21 9.22 3.49 3.77 1.56 7.5 3.19 11.2 4.91 4.04 1.86 8.05 3.78 12.03 5.77 3.92 1.97 7.82 4 11.67 6.1 3.44 1.87 6.83 3.82 10.16 5.85 1.4.86 2.79 1.74 4.15 2.66 1.14.76 2.26 1.56 3.35 2.39.83.64 1.62 1.32 2.36 2.06.29.28.56.58.8.9l.02.02.12.16c.21.28.34.61.39.96.39 3.21.59 6.43.59 9.67 0 0 0 0 0 0v.45c0 2.18-.06 4.36-.18 6.54-.12 2.26-.28 4.51-.47 6.77-.24 1.7-.54 3.39-.9 5.07-.31 1.48-.69 2.95-1.14 4.4-.38 1.28-.84 2.53-1.36 3.75-.46 1.06-1 2.09-1.61 3.07 1.8 5.63 3.35 11.33 4.63 17.09 1.24 5.54 2.21 11.14 2.89 16.77a292.66 292.66 0 012.45 29.27c.02.55-.19 1.07-.56 1.46-.38.39-.9.61-1.44.61h-25.53v-56.41-.03c.03-2.02.15-4.04.35-6.06.25-2.57.55-5.15.91-7.71a34.451 34.451 0 01-5.02-10.03v-.01l-33.85 32.6v47.65H96.16v-47.65l-33.84-32.59h-.01a34.451 34.451 0 01-5.02 10.03c.36 2.56.66 5.14.91 7.71.2 2.02.32 4.04.35 6.06v56.44H33.02c-.54 0-1.06-.22-1.44-.61-.37-.39-.58-.91-.56-1.46.33-9.79 1.14-19.56 2.45-29.27.68-5.63 1.65-11.23 2.89-16.77 1.28-5.76 2.83-11.46 4.63-17.09-.61-.98-1.15-2.01-1.61-3.07-.52-1.22-.98-2.47-1.36-3.75-.45-1.45-.83-2.92-1.14-4.4-.36-1.68-.66-3.37-.9-5.07-.19-2.26-.35-4.51-.47-6.77-.12-2.18-.18-4.36-.18-6.54v-.45s0 0 0 0c0-3.24.2-6.46.59-9.67.05-.35.18-.68.39-.96l.12-.16.02-.02c.24-.32.51-.62.8-.9.74-.74 1.53-1.42 2.36-2.06 1.09-.83 2.21-1.63 3.35-2.39 1.36-.92 2.75-1.8 4.15-2.66 3.33-2.03 6.72-3.98 10.16-5.85 3.85-2.1 7.75-4.13 11.67-6.1 3.98-1.99 7.99-3.91 12.03-5.77 3.7-1.72 7.43-3.35 11.2-4.91 3.03-1.28 6.1-2.44 9.22-3.49 1.15-.38 2.31-.72 3.49-1.02.84-.23 1.69-.39 2.55-.47h.02v-7.52c-.94-.73-1.78-1.57-2.52-2.51a11.5 11.5 0 01-1.25-5.02v-.04l-.03-.6v-.13c.03-1.51.48-2.97 1.29-4.23V44.78v-.05c.12-4.29.97-8.52 2.51-12.51.69-1.13 1.52-2.17 2.48-3.09 1.18-1.16 2.45-2.22 3.79-3.19.38-.24.78-.44 1.2-.6.77-.33 1.56-.61 2.37-.84 1.86-.53 3.77-.86 5.7-.99v-.07H125m.02 0h-.01 2.01v.03m-2.03 3.97h-.2c-2.17.01-4.32.31-6.4.9-.67.2-1.33.43-1.98.71-.16.06-.31.13-.46.22-1.15.83-2.23 1.74-3.24 2.73-.63.6-1.18 1.28-1.66 2.01a33.53 33.53 0 00-2.11 10.8V64.83c0 .75-.22 1.5-.62 2.13a4.24 4.24 0 00-.67 2.12l.03.61v.09c.02 1.01.24 2 .65 2.91.47.55.99 1.06 1.56 1.5.98.75 1.56 1.92 1.56 3.16 0 0 0 0 0 0v7.54c-.01.99-.38 1.94-1.04 2.68-.67.73-1.59 1.19-2.57 1.29-.66.06-1.31.18-1.94.35-1.09.28-2.17.6-3.25.96-3.02 1.02-6 2.14-8.94 3.38-3.72 1.54-7.41 3.16-11.06 4.85-4 1.84-7.97 3.75-11.91 5.72-3.89 1.95-7.75 3.96-11.57 6.04-3.37 1.83-6.7 3.75-9.98 5.75-1.35.82-2.69 1.68-4.01 2.56-1.07.72-2.12 1.46-3.13 2.25-.7.53-1.37 1.11-2 1.73-.07.07-.15.15-.22.23-.33 2.87-.5 5.74-.5 8.63v.45s0 0 0 0c0 2.11.06 4.22.18 6.32.11 2.18.26 4.36.45 6.54.22 1.57.5 3.13.84 4.69.28 1.37.63 2.73 1.04 4.07.34 1.13.75 2.24 1.22 3.32.61 1.43 1.4 2.79 2.35 4.03-2.03 6.11-3.75 12.32-5.15 18.6-1.21 5.41-2.16 10.89-2.83 16.39-1.19 8.91-1.97 17.86-2.33 26.84h19.45v-52.39c-.03-1.91-.14-3.82-.33-5.71-.3-3.08-.67-6.15-1.12-9.21 2.42-3 4.25-6.43 5.39-10.12a3.978 3.978 0 013.82-2.81c1.03 0 2.02.39 2.77 1.1 0 .01 0 .01.01.01l35.07 33.78v45.35h49.68v-45.35l35.07-33.78c.01 0 .01 0 .01-.01.75-.71 1.74-1.1 2.77-1.1a3.978 3.978 0 013.82 2.81 30.41 30.41 0 005.39 10.12c-.45 3.06-.82 6.13-1.12 9.21-.19 1.89-.3 3.8-.33 5.71v52.39h19.45c-.36-8.98-1.14-17.93-2.33-26.84-.67-5.5-1.62-10.98-2.83-16.39-1.4-6.28-3.12-12.49-5.15-18.6.95-1.24 1.74-2.6 2.35-4.03.47-1.08.88-2.19 1.22-3.32.41-1.34.76-2.7 1.04-4.07.34-1.56.62-3.12.84-4.69.19-2.18.34-4.36.45-6.54.12-2.1.18-4.21.18-6.32 0 0 0 0 0 0v-.45c0-2.89-.17-5.76-.5-8.63-.07-.08-.15-.16-.22-.23-.63-.62-1.3-1.2-2-1.73-1.01-.79-2.06-1.53-3.13-2.25-1.32-.88-2.66-1.74-4.01-2.56-3.28-2-6.61-3.92-9.98-5.75-3.82-2.08-7.68-4.09-11.57-6.04-3.94-1.97-7.91-3.88-11.91-5.72-3.65-1.69-7.34-3.31-11.06-4.85-2.94-1.24-5.92-2.36-8.94-3.38-1.08-.36-2.16-.68-3.25-.96-.63-.17-1.28-.29-1.94-.35-.98-.1-1.9-.56-2.57-1.29a4.086 4.086 0 01-1.04-2.68v-7.54s0 0 0 0c0-1.24.58-2.41 1.56-3.16.57-.44 1.09-.95 1.56-1.5.41-.91.63-1.9.65-2.91v-.09l.03-.61a4.24 4.24 0 00-.67-2.12c-.4-.63-.62-1.38-.62-2.13V44.81c-.11-3.7-.82-7.36-2.11-10.82-.1-.15-.2-.3-.31-.43-.55-.74-1.17-1.42-1.84-2.04a31.97 31.97 0 00-2.71-2.22l-.02-.01-.06-.03.14.07-.04-.02c-.02-.01-.03-.01-.04-.02a.746.746 0 01-.12-.07c-.53-.33-1.09-.61-1.66-.85-.87-.32-1.77-.55-2.69-.66-1.27-.17-2.54-.25-3.82-.27H125h0m.78 0H125m10.97-1.67c.03.02.06.03.08.05l-.16-.09.08.04zm51.72 120.55s0 0 0 0v-.01h.01v.01h-.01zm-125.38 0h-.01v-.01h.01v.01zm60.68-122.81c.6-.04 1.19-.07 1.79-.07h.22m-.01 4h-.2m.21-8h0zm0 4h0zm-20.06 21.29V64.27c0 .34-.09.68-.25.97a8.25 8.25 0 00-1.04 3.79l.01.05.03.72v.06c.02 1.74.45 3.45 1.25 4.99.55.7 1.16 1.35 1.83 1.94.43.38.68.92.68 1.5v4.87c0 .47-.16.92-.46 1.28-.3.36-.71.6-1.17.69-.31.06-.62.13-.92.21-1.19.3-2.36.65-3.51 1.04-3.12 1.04-6.19 2.2-9.22 3.48-3.77 1.55-7.5 3.19-11.2 4.91-4.04 1.86-8.05 3.78-12.03 5.78-3.92 1.96-7.81 3.99-11.66 6.09-3.45 1.86-6.84 3.82-10.18 5.86-1.4.86-2.78 1.74-4.15 2.66-1.14.75-2.24 1.54-3.32 2.38-.84.63-1.63 1.32-2.38 2.05-.28.28-.54.58-.79.89-.19.23-.35.49-.48.76-.43 3.35-.65 6.72-.65 10.1v.43s0 0 0 0c0 2.18.06 4.36.19 6.53.12 2.26.27 4.51.46 6.77.24 1.7.54 3.39.9 5.07a51.6 51.6 0 001.13 4.4c.39 1.27.85 2.53 1.38 3.75.46 1.06.99 2.09 1.61 3.07a193.33 193.33 0 00-4.65 17.09 176.19 176.19 0 00-2.88 16.76c-1.39 10.4-2.23 20.86-2.51 31.34v.01s0 0 0 0h27.59v-56.43c-.03-2.03-.15-4.05-.35-6.06-.25-2.58-.56-5.15-.91-7.72 1.62-2.23 2.97-4.65 4.01-7.2.25-.62.79-1.07 1.44-1.21.64-.13 1.32.06 1.8.52l31.62 30.46v47.64h57.68v-47.64l31.62-30.46c.48-.46 1.16-.65 1.8-.52.65.14 1.19.59 1.44 1.21 1.04 2.55 2.39 4.97 4.01 7.2-.35 2.57-.66 5.14-.91 7.72-.2 2.01-.32 4.03-.35 6.06V226.56h27.59s0 0 0 0v-.01c-.28-10.48-1.12-20.94-2.51-31.34a176.19 176.19 0 00-2.88-16.76 193.33 193.33 0 00-4.65-17.09c.62-.98 1.15-2.01 1.61-3.07.53-1.22.99-2.48 1.38-3.75a51.6 51.6 0 001.13-4.4c.36-1.68.66-3.37.9-5.07.19-2.26.34-4.51.46-6.77.13-2.17.19-4.35.19-6.53 0 0 0 0 0 0v-.43c0-3.38-.22-6.75-.65-10.1a3.75 3.75 0 00-.48-.76c-.25-.31-.51-.61-.79-.89-.75-.73-1.54-1.42-2.38-2.05-1.08-.84-2.18-1.63-3.32-2.38-1.37-.92-2.75-1.8-4.15-2.66-3.34-2.04-6.73-4-10.18-5.86-3.85-2.1-7.74-4.13-11.66-6.09-3.98-2-7.99-3.92-12.03-5.78-3.7-1.72-7.43-3.36-11.2-4.91-3.03-1.28-6.1-2.44-9.22-3.48-1.15-.39-2.32-.74-3.51-1.04-.3-.08-.61-.15-.92-.21-.46-.09-.87-.33-1.17-.69-.3-.36-.46-.81-.46-1.28v-4.87c0-.58.25-1.12.68-1.5.67-.59 1.28-1.24 1.83-1.94.8-1.54 1.23-3.25 1.25-4.99v-.06l.03-.72.01-.05a8.25 8.25 0 00-1.04-3.79 2.03 2.03 0 01-.25-.97V44.73c-.11-4.29-.96-8.52-2.51-12.52-.22-.37-.46-.73-.71-1.07-.7-.92-1.48-1.78-2.33-2.57-1.02-.93-2.09-1.8-3.21-2.6l-.07-.05-.15-.09c-.02-.01-.05-.02-.07-.03-.72-.45-1.47-.83-2.26-1.15-1.17-.45-2.4-.75-3.65-.9-1.38-.19-2.78-.29-4.17-.31h-1.15c-2.53.01-5.05.37-7.49 1.06-.8.22-1.6.5-2.37.83-.42.17-.82.37-1.2.62a30.39 30.39 0 00-3.79 3.18c-.96.92-1.79 1.96-2.48 3.09a37.665 37.665 0 00-2.51 12.51zm18.04-25.23c.6-.04 1.19-.06 1.79-.06h1.19l1.03.03c1.21.05 2.41.15 3.61.31 1.58.19 3.14.58 4.63 1.15.98.4 1.94.88 2.84 1.44l.28.15.23.16c.01.01.02.02.03.02 1.26.91 2.46 1.88 3.6 2.93 1.03.95 1.97 1.98 2.81 3.09.43.56.81 1.15 1.15 1.76 1.78 4.52 2.76 9.31 2.89 14.17v19.13a12.28 12.28 0 011.29 5.29c0 .07 0 .14-.01.21v.07l-.03.6c-.04 2.47-.68 4.9-1.87 7.06-.57.77-1.2 1.49-1.89 2.16v2.42c1.12.29 2.24.62 3.34 1 3.2 1.07 6.36 2.27 9.48 3.58 3.81 1.57 7.59 3.23 11.34 4.97a385.8 385.8 0 0112.13 5.83c3.97 1.98 7.9 4.03 11.8 6.15 3.5 1.9 6.95 3.89 10.34 5.96 1.45.89 2.88 1.8 4.29 2.75 1.21.8 2.39 1.65 3.54 2.53.97.74 1.89 1.54 2.76 2.39.39.39.75.8 1.09 1.23.54.66.96 1.41 1.26 2.21.5 3.7.75 7.42.75 11.15v.43c0 2.25-.06 4.5-.19 6.75-.13 2.34-.29 4.67-.48 6.99-.26 1.83-.58 3.65-.96 5.46-.34 1.59-.75 3.17-1.23 4.73a41.75 41.75 0 01-1.52 4.18c-.29.66-.61 1.31-.95 1.95 1.62 5.19 3.02 10.44 4.21 15.74 1.26 5.66 2.25 11.38 2.94 17.14a295.95 295.95 0 012.55 31.75V226.55c0 1.05-.41 2.06-1.14 2.81a4.02 4.02 0 01-2.85 1.2h-31.6v-60.45-.03c.03-2.14.15-4.28.37-6.41.21-2.11.45-4.21.72-6.32-.86-1.3-1.64-2.65-2.34-4.04l-28.36 27.31v49.94H92.16v-49.94L63.8 153.31c-.7 1.39-1.48 2.74-2.34 4.04.27 2.11.51 4.21.72 6.32.22 2.13.34 4.27.37 6.41V230.56H30.96h-.01c-1.07 0-2.1-.44-2.85-1.2a4.032 4.032 0 01-1.14-2.81v-.06-.03a295.95 295.95 0 012.55-31.75c.69-5.76 1.68-11.48 2.94-17.14 1.19-5.3 2.59-10.55 4.21-15.74-.34-.64-.66-1.29-.95-1.95a41.75 41.75 0 01-1.52-4.18c-.48-1.56-.89-3.14-1.23-4.73-.38-1.81-.7-3.63-.96-5.46-.19-2.32-.35-4.65-.48-6.99-.13-2.25-.19-4.5-.19-6.75v-.42-.01c0-3.73.25-7.45.75-11.15.3-.8.72-1.55 1.26-2.21.34-.43.7-.84 1.09-1.23.87-.85 1.79-1.65 2.76-2.39 1.15-.88 2.33-1.73 3.54-2.53 1.41-.95 2.84-1.86 4.29-2.75 3.39-2.07 6.84-4.06 10.34-5.96 3.9-2.12 7.83-4.17 11.8-6.15a385.8 385.8 0 0112.13-5.83c3.75-1.74 7.53-3.4 11.34-4.97 3.12-1.31 6.28-2.51 9.48-3.58 1.1-.38 2.22-.71 3.34-1v-2.42c-.69-.67-1.32-1.39-1.89-2.16a15.152 15.152 0 01-1.87-7.06l-.03-.6v-.07c-.01-.07-.01-.14-.01-.21.03-1.84.47-3.65 1.29-5.29V44.7v-.05c.13-4.87 1.11-9.67 2.91-14.2.9-1.54 2-2.95 3.28-4.18 1.35-1.32 2.79-2.53 4.33-3.62.61-.41 1.27-.75 1.96-1.02.9-.39 1.84-.72 2.79-.98 2.21-.63 4.48-1.01 6.77-1.15v-.06H126.99v.03m-1.06 3.97h-.94 0H124.78"
          vectorEffect="non-scaling-stroke"
        ></path>
        <circle
          cx="125"
          cy="125"
          r="30.385"
          fill="#73D9D9"
          stroke="#A4D2D2"
          strokeMiterlimit="3"
          strokeWidth="3"
          vectorEffect="non-scaling-stroke"
        ></circle>
      </g>
    </svg>