<?xml version="1.0" encoding="UTF-8" standalone="no"?>
<!DOCTYPE svg PUBLIC "-//W3C//DTD SVG 1.1//EN" "http://www.w3.org/Graphics/SVG/1.1/DTD/svg11.dtd">
<svg
      xmlns="http://www.w3.org/2000/svg"
      width="80"
      height="80"
      version="1.1"
      viewBox="0 0 120 120"
    >
      <g>
        <path
          fill="currentColor"
          strokeWidth="0.301"
          d="M35.607 110.253c-1.466-.722-2.257-1.622-2.257-2.572 0-.536.318-.875 1.28-1.364.703-.359 3.295-1.855 5.76-3.325 2.465-1.47 4.525-2.63 4.579-2.576.053.054.122.925.152 1.936.062 2.073-.233 2.608-2.478 4.486-1.223 1.023-5.542 4.046-5.743 4.019-.049-.006-.63-.279-1.293-.604zm13.267-21.414c-2.265 5.617-5.747 9.909-9.097 11.211-4.07 1.584-8.623.563-11.492-2.576-4.434-4.851-6.33-15.196-4.247-23.177.615-2.357 1.175-3.848 4.63-12.335 2.36-5.797 2.813-7.661 3.25-13.368.26-3.402.496-4.98.755-5.066.557-.185.495 7.755-.089 11.362-.525 3.246-1.27 5.474-4.332 12.94-3.031 7.396-3.484 9.206-3.46 13.845.022 4.224.34 5.433 2.118 8.03 2.662 3.888 8.762 5.783 12.689 3.942 3.874-1.818 9.19-9.253 9.851-13.779.173-1.182.106-1.442-.523-2.033-.397-.373-1.812-.995-3.145-1.382-5.465-1.59-7.081-4.189-7.137-11.481-.025-3.2.051-3.77.666-5.007 1.049-2.107 2.537-3.679 6.367-6.722 4.227-3.358 6.534-6.031 8.436-9.778.835-1.644.726-3.77-.416-8.138-.41-1.573-1.098-5.018-1.526-7.656-.429-2.639-1.176-6.634-1.66-8.879-.484-2.244-.97-4.59-1.08-5.213-.231-1.315.096-4.436.465-4.436.45 0 3.393 7.465 4.694 11.907.391 1.334 1.251 5.804 1.911 9.932 2.074 12.972 3.768 19.975 5.033 20.804 1.102.722 3.423.391 4.828-.688a41.87 41.87 0 012.496-1.739c4.4-2.8 12.421-10.444 11.708-11.157-.064-.064-1.254.011-2.644.167-2.812.314-4.606.086-7.326-.932-2.462-.921-2.637-1.28-2.633-5.412.005-5.186.118-5.595 2.092-7.569 2.867-2.867 8.647-5.204 11.109-4.492 2.526.731 3.361 2.07 4.069 6.52.266 1.676.484 3.131.484 3.236 0 .352 1.047.168 1.985-.35.512-.282 1.745-1.465 2.74-2.628 1.841-2.154 4.581-4.763 5.537-5.275.465-.249.553-.091.723 1.296.35 2.855-.085 3.839-2.854 6.444-1.358 1.278-3.602 3.736-4.985 5.463-2.038 2.544-2.488 3.288-2.377 3.93.228 1.307.997 11.079 1.164 14.785.164 3.64.038 2.787-1.648-11.211-.194-1.614-.44-2.932-.545-2.928-.105.004-.55.511-.987 1.129-1.313 1.85-7.691 8.368-12.587 12.86-2.526 2.317-4.617 4.145-4.647 4.062-.03-.083-.4.076-.821.352-2.292 1.502-4.966 1.292-6.552-.515-1.517-1.728-2.144-3.303-3.196-8.037-.55-2.471-1.06-4.554-1.135-4.629-.074-.074-.932 2.002-1.905 4.616-.972 2.613-2.209 5.391-2.747 6.174-.538.782-.98 1.528-.984 1.656-.004.128-.516.593-1.14 1.034-3.094 2.187-7.403 5.867-8.096 6.914-.956 1.444-.748 2.092 1.167 3.643 1.576 1.277 2.76 1.894 4.163 2.168.579.113 1.43.35 1.892.529 1.908.735 3.16 4.905 2.82 9.398-1.011 7.123-1.09 6.043-1.83 8.239zm32.929-57.83c2.014-.423 2.202-.93.894-2.42-1.196-1.362-2.619-1.79-5.44-1.64-2.47.132-5.402 1.347-6.207 2.572-.41.623-.374.702.57 1.278.879.536 1.482.61 4.768.585 2.069-.015 4.506-.184 5.415-.375z"
        ></path>
      </g>
    </svg>